<svg width="34" height="34" viewBox="0 0 34 34" fill="none" xmlns="http://www.w3.org/2000/svg">
<path fill-rule="evenodd" clip-rule="evenodd" d="M22.6569 21.2426L18.4142 17L22.6569 12.7574C23.0479 12.3663 23.0472 11.7335 22.6569 11.3431C22.2665 10.9528 21.6337 10.9521 21.2426 11.3431L17 15.5858L12.7574 11.3431C12.367 10.9528 11.7342 10.9521 11.3431 11.3431C10.9521 11.7342 10.9528 12.367 11.3431 12.7574L15.5858 17L11.3431 21.2426C10.9521 21.6337 10.9528 22.2665 11.3431 22.6569C11.7335 23.0472 12.3663 23.0479 12.7574 22.6569L17 18.4142L21.2426 22.6569C21.633 23.0472 22.2658 23.0479 22.6569 22.6569C23.0479 22.2658 23.0472 21.633 22.6569 21.2426" fill="white"/>
</svg>
