<svg width="24" height="24" viewBox="0 0 24 24" fill="none" xmlns="http://www.w3.org/2000/svg">
<mask id="mask0" mask-type="alpha" maskUnits="userSpaceOnUse" x="2" y="4" width="20" height="15">
<path fill-rule="evenodd" clip-rule="evenodd" d="M12 13.5C11.173 13.5 10.5 12.827 10.5 12C10.5 11.173 11.173 10.5 12 10.5C12.827 10.5 13.5 11.173 13.5 12C13.5 12.827 12.827 13.5 12 13.5M12 8.5C10.07 8.5 8.50001 10.07 8.50001 12C8.50001 13.93 10.07 15.5 12 15.5C13.93 15.5 15.5 13.93 15.5 12C15.5 10.07 13.93 8.5 12 8.5M12.2197 16.9976C7.91372 17.0976 5.10472 13.4146 4.17272 11.9956C5.19872 10.3906 7.78272 7.1046 11.7807 7.0026C16.0697 6.8936 18.8947 10.5856 19.8267 12.0046C18.8017 13.6096 16.2167 16.8956 12.2197 16.9976M21.8677 11.5026C21.2297 10.3906 17.7057 4.81661 11.7297 5.00361C6.20172 5.14361 2.98672 10.0136 2.13272 11.5026C1.95572 11.8106 1.95572 12.1896 2.13272 12.4976C2.76172 13.5946 6.16172 18.9996 12.0247 18.9996C12.1067 18.9996 12.1887 18.9986 12.2707 18.9966C17.7977 18.8556 21.0137 13.9866 21.8677 12.4976C22.0437 12.1896 22.0437 11.8106 21.8677 11.5026" fill="white"/>
</mask>
<g mask="url(#mask0)">
<rect width="24" height="24" fill="#A3D76E"/>
</g>
</svg>
