<svg width="24" height="24" viewBox="0 0 24 24" fill="none" xmlns="http://www.w3.org/2000/svg">
<mask id="mask0" mask-type="alpha" maskUnits="userSpaceOnUse" x="2" y="2" width="19" height="19">
<path fill-rule="evenodd" clip-rule="evenodd" d="M10.5605 8.4395C11.1465 9.0245 11.1465 9.9755 10.5605 10.5605C9.9745 11.1465 9.0255 11.1465 8.4395 10.5605C7.8535 9.9755 7.8535 9.0245 8.4395 8.4395C9.0255 7.8535 9.9745 7.8535 10.5605 8.4395M5.83402 12.8916L11.866 18.9246L18.924 11.8666L12.892 5.83356L5.10702 5.10756L5.83402 12.8916ZM11.866 20.9986C11.401 20.9986 10.937 20.8216 10.582 20.4686L4.16502 14.0506C4.00002 13.8866 3.89802 13.6686 3.87602 13.4366L3.00402 4.09257C2.97702 3.79657 3.08202 3.50357 3.29302 3.29257C3.50402 3.08157 3.79602 2.97457 4.09302 3.00457L13.437 3.87657C13.669 3.89757 13.886 3.99957 14.051 4.16457L20.468 10.5816C20.811 10.9246 21 11.3806 21 11.8666C21 12.3526 20.811 12.8086 20.468 13.1516L13.151 20.4676C12.797 20.8216 12.332 20.9986 11.866 20.9986V20.9986Z" fill="white"/>
</mask>
<g mask="url(#mask0)">
<rect width="24" height="24" fill="#A3D76E"/>
</g>
</svg>
