<svg width="30" height="30" viewBox="0 0 30 30" fill="none" xmlns="http://www.w3.org/2000/svg">
<mask id="mask0_434_15" style="mask-type:alpha" maskUnits="userSpaceOnUse" x="2" y="3" width="25" height="24">
<path fill-rule="evenodd" clip-rule="evenodd" d="M20.4773 17.5H10.9547L8.90849 10H24.2273L20.4773 17.5ZM26.3535 8.685C25.8948 7.9425 25.0998 7.5 24.2273 7.5H8.22726L7.45601 4.67125C7.30726 4.1275 6.81351 3.75 6.24976 3.75H3.74976C3.05851 3.75 2.49976 4.31 2.49976 5C2.49976 5.69 3.05851 6.25 3.74976 6.25H5.29476L8.79351 19.0787C8.94226 19.6225 9.43601 20 9.99976 20H21.2498C21.7235 20 22.156 19.7325 22.3685 19.3087L26.4635 11.1175C26.8548 10.3363 26.8123 9.4275 26.3535 8.685ZM9.37502 22.5C8.34002 22.5 7.50002 23.3388 7.50002 24.375C7.50002 25.4112 8.34002 26.25 9.37502 26.25C10.41 26.25 11.25 25.4112 11.25 24.375C11.25 23.3388 10.41 22.5 9.37502 22.5ZM20 24.375C20 23.3388 20.84 22.5 21.875 22.5C22.91 22.5 23.75 23.3388 23.75 24.375C23.75 25.4112 22.91 26.25 21.875 26.25C20.84 26.25 20 25.4112 20 24.375Z" fill="white"/>
</mask>
<g mask="url(#mask0_434_15)">
<path d="M30 0H0V30H30V0Z" fill="#AFBFA5"/>
</g>
</svg>
